PathFileType	4	(X/Y/Z)	Run_400 05
DataRate	CameraRate	NumFrames	NumMarkers	Units	OrigDataRate	OrigDataStartFrame	OrigNumFrames
120	120	4	42	mm	120	1	128
Frame#	Time	LASI			RASI			LPSI			RPSI			RTH1			RTH2			RTH3			LTH1			LTH2			LTH3			RTB1			RTB2			RTB3			LTB1			LTB2			LTB3			RCAL			RTOE			RMT5			LCAL			LTOE			LMT5			LACR			RACR			CLAV			C7			RUA1			RUA2			RUA3			RLEL			RMEL			LUA1			LUA2			LUA3			LLEL			LMEL			RFAsuperior			RFAradius			RFAulna			LFAsuperior			LFAradius			LFAulna			
		X1	Y1	Z1	X2	Y2	Z2	X3	Y3	Z3	X4	Y4	Z4	X5	Y5	Z5	X6	Y6	Z6	X7	Y7	Z7	X8	Y8	Z8	X9	Y9	Z9	X10	Y10	Z10	X11	Y11	Z11	X12	Y12	Z12	X13	Y13	Z13	X14	Y14	Z14	X15	Y15	Z15	X16	Y16	Z16	X17	Y17	Z17	X18	Y18	Z18	X19	Y19	Z19	X20	Y20	Z20	X21	Y21	Z21	X22	Y22	Z22	X23	Y23	Z23	X24	Y24	Z24	X25	Y25	Z25	X26	Y26	Z26	X27	Y27	Z27	X28	Y28	Z28	X29	Y29	Z29	X30	Y30	Z30	X31	Y31	Z31	X32	Y32	Z32	X33	Y33	Z33	X34	Y34	Z34	X35	Y35	Z35	X36	Y36	Z36	X37	Y37	Z37	X38	Y38	Z38	X39	Y39	Z39	X40	Y40	Z40	X41	Y41	Z41	X42	Y42	Z42	

1	0.1	991.40747	1076.299385	-443.41941	981.196519	1081.700751	-187.295329	813.892611	1130.007467	-358.38534	806.664617	1118.518329	-272.976294	953.38839	908.608885	-130.334359	1047.135892	822.161344	-133.995194	1032.196381	702.401281	-184.525992	848.991115	878.046331	-485.977127	841.497	744.985651	-464.576358	730.145477	675.701006	-438.621942	1214.481192	459.148216	-265.367991	1206.991797	387.223425	-198.857804	1252.481863	297.846787	-270.65997	599.117435	479.978492	-368.921985	500.732346	480.806626	-410.005913	407.715828	416.486577	-338.364746	1199.468098	107.830564	-296.921903	1423.134633	181.537077	-294.828112	1368.301904	117.011888	-214.685441	262.195511	473.143364	-303.276754	281.966106	240.358989	-310.328913	231.166044	309.608176	-384.828946	1019.420598	1568.489615	-449.253585	938.175805	1560.371194	-123.03501	1018.232609	1506.960044	-240.673566	904.435958	1585.8279	-304.354201	858.148017	1501.79541	-59.15702	815.246403	1421.880738	-61.050536	746.045482	1458.503065	-79.71569700000001	643.029532	1358.023118	-41.668774	648.377251	1344.287466	-123.495722	1019.089439	1483.148769	-528.535404	1023.515762	1410.841905	-522.140846	930.143867	1403.059295	-552.755503	936.050913	1238.887742	-607.745815	865.76316	1232.15908	-550.473668	727.7724449999999	1301.090338	-13.277309	883.7387680000001	1210.611777	-53.572283	844.565255	1177.379175	-2.660891	1016.50641	1250.657728	-549.008743	1093.677026	1299.21873	-392.570675	1122.204494	1232.318275	-408.832448	
2	0.108333	991.468105	1073.930049	-442.776654	979.510533	1079.783672	-187.42099	813.136442	1125.671285	-358.745273	805.817344	1115.241431	-273.643823	950.775727	905.07155	-129.019672	1045.226182	819.574075	-133.446682	1030.423379	699.4379300000001	-184.643179	854.872759	871.78536	-485.386468	849.809563	738.290931	-464.130059	740.364295	666.289803	-439.521655	1208.362092	453.410829	-266.486359	1201.503361	382.016713	-200.055003	1243.910227	291.710763	-272.259475	607.30098	476.949635	-368.889021	509.344183	484.393549	-410.311233	411.463159	428.23546	-338.313399	1187.837022	102.363733	-298.661304	1413.292873	172.131592	-293.902092	1356.11278	108.545768	-215.434673	269.480994	495.293887	-303.650579	275.214398	261.90018	-311.525795	229.332024	334.538632	-386.377658	1019.606141	1564.2365	-448.618601	939.982616	1554.798317	-121.786219	1018.714291	1502.189827	-240.63727	905.0914289999999	1582.200506	-302.595437	861.658141	1493.780953	-56.168896	820.30489	1412.766305	-58.325593	749.767514	1448.220816	-73.335144	649.74605	1346.45033	-34.609465	653.954846	1332.269679	-116.507722	1018.080267	1479.159659	-528.3876299999999	1021.4473	1406.770209	-522.378303	927.731614	1400.571182	-552.436529	930.9640460000001	1236.450379	-608.0046579999999	861.152878	1230.484514	-550.518136	736.3208090000001	1291.443001	-7.147207	892.691745	1202.910236	-50.411399	855.704593	1170.643271	2.88164	1011.915227	1245.674038	-549.481546	1091.076129	1290.938684	-393.040356	1117.784949	1223.52207	-410.122441	
3	0.116667	991.302415	1070.455126	-442.371478	977.747325	1076.902104	-187.38632	812.211804	1119.923499	-359.197339	804.749669	1110.948155	-274.323286	948.649871	902.062408	-128.869577	1044.662499	818.668997	-134.859435	1028.756853	696.349172	-184.649383	860.495354	864.913041	-485.13338	858.615721	730.887973	-464.07112	751.387147	656.053996	-440.810442	1200.857918	446.189914	-267.450866	1194.086892	375.385315	-200.920761	1232.548478	283.741441	-273.515211	617.29573	473.51537	-369.055147	519.95107	487.277025	-411.046439	418.086224	439.125218	-339.1395	1171.432891	97.356712	-299.449276	1398.822949	159.748821	-295.436729	1340.102505	97.094855	-217.966546	280.579288	516.382105	-304.619674	271.686576	283.190391	-313.079878	230.985992	358.98958	-388.284659	1019.665203	1559.063289	-447.982755	942.04444	1548.468564	-120.646511	1019.243812	1496.40806	-240.687264	905.581602	1577.648065	-300.82123	865.71034	1485.005398	-53.226685	825.963554	1402.962528	-55.410836	754.158687	1437.028111	-66.63251200000001	657.372373	1333.886231	-26.985125	660.187201	1319.27661	-108.950335	1016.450934	1474.429578	-528.470511	1018.943764	1401.962162	-522.856917	924.976415	1397.203607	-552.168686	925.448862	1233.235699	-608.359331	856.245512	1227.98081	-550.491033	745.730533	1280.824226	-0.730674	902.360385	1194.270412	-47.218759	867.638275	1162.924815	8.353119	1006.967032	1239.750954	-550.259736	1088.443396	1281.371991	-393.916165	1113.118653	1213.530271	-412.018305	
4	0.125	990.9491860000001	1065.873037	-442.190421	975.99829	1073.021424	-186.983774	811.09031	1112.837642	-359.800392	803.242137	1105.539344	-274.978236	947.302414	899.283451	-129.8112	1044.916855	818.2387629999999	-138.477242	1026.647959	692.543142	-184.400579	865.734952	857.330234	-485.082426	867.903489	722.915183	-464.337254	763.10025	645.24724	-442.538992	1192.364414	437.674893	-268.140335	1184.391287	367.32342	-201.544488	1219.065075	274.238064	-274.330355	628.865288	469.906454	-369.215214	532.240865	489.18846	-412.070636	427.279238	448.860521	-340.658867	1151.221844	94.16713	-299.879215	1380.479572	143.907721	-299.414528	1320.403589	83.48206999999999	-221.429365	294.987775	535.799907	-306.083654	271.552132	303.62847	-314.957061	236.026086	382.142904	-390.334421	1019.579917	1552.996649	-447.462983	944.3871360000001	1541.417932	-119.569457	1019.759265	1489.725594	-240.820134	905.880453	1572.197945	-299.140431	870.268239	1475.514192	-50.401741	832.20096	1392.517239	-52.290488	759.284979	1425.018711	-59.70923	665.899591	1320.388548	-18.859811	666.944419	1305.386896	-100.843197	1014.305357	1468.939334	-528.7310210000001	1016.034096	1396.427413	-523.513906	921.892019	1392.959457	-551.897261	919.541732	1229.283745	-608.767332	850.982402	1224.732687	-550.37002	755.947126	1269.280599	5.913116	912.716479	1184.942133	-43.90193	880.327041	1154.251476	13.636566	1001.635213	1232.943944	-551.350428	1085.775146	1270.551507	-395.170368	1108.153758	1202.303253	-414.367898	
